# Blender 4.4.0
# www.blender.org
mtllib Cone.mtl
o Cone
v 1.000000 0.000000 -1.000000
v 0.980785 -0.195090 -1.000000
v 0.923880 -0.382683 -1.000000
v 0.831470 -0.555570 -1.000000
v 0.707107 -0.707107 -1.000000
v 0.555570 -0.831470 -1.000000
v 0.382683 -0.923880 -1.000000
v 0.195090 -0.980785 -1.000000
v 0.000000 -1.000000 -1.000000
v -0.195090 -0.980785 -1.000000
v -0.382683 -0.923880 -1.000000
v -0.555570 -0.831470 -1.000000
v -0.707107 -0.707107 -1.000000
v -0.831470 -0.555570 -1.000000
v -0.923880 -0.382683 -1.000000
v -0.980785 -0.195090 -1.000000
v -1.000000 0.000000 -1.000000
v -0.980785 0.195090 -1.000000
v -0.923880 0.382683 -1.000000
v -0.831470 0.555570 -1.000000
v -0.707107 0.707107 -1.000000
v -0.555570 0.831470 -1.000000
v -0.382683 0.923880 -1.000000
v -0.195090 0.980785 -1.000000
v 0.000000 1.000000 -1.000000
v 0.195090 0.980785 -1.000000
v 0.382683 0.923880 -1.000000
v 0.555570 0.831470 -1.000000
v 0.707107 0.707107 -1.000000
v 0.831470 0.555570 -1.000000
v 0.923880 0.382683 -1.000000
v 0.980785 0.195090 -1.000000
v 0.000000 0.000000 1.000000
vn 0.8641 -0.0000 -0.5033
vn 0.8475 -0.1686 -0.5032
vn 0.7983 -0.3307 -0.5033
vn 0.7185 -0.4801 -0.5032
vn 0.6110 -0.6110 -0.5033
vn 0.4801 -0.7185 -0.5033
vn 0.3307 -0.7983 -0.5033
vn 0.1686 -0.8475 -0.5032
vn -0.0000 -0.8641 -0.5033
vn -0.1686 -0.8475 -0.5032
vn -0.3307 -0.7983 -0.5033
vn -0.4801 -0.7185 -0.5032
vn -0.6110 -0.6110 -0.5033
vn -0.7185 -0.4801 -0.5033
vn -0.7983 -0.3307 -0.5033
vn -0.8475 -0.1686 -0.5033
vn -0.8641 -0.0000 -0.5033
vn -0.8475 0.1686 -0.5032
vn -0.7983 0.3307 -0.5033
vn -0.7185 0.4801 -0.5032
vn -0.6110 0.6110 -0.5033
vn -0.4801 0.7185 -0.5033
vn -0.3307 0.7983 -0.5033
vn -0.1686 0.8475 -0.5032
vn -0.0000 0.8641 -0.5033
vn 0.1686 0.8475 -0.5032
vn 0.3307 0.7983 -0.5033
vn 0.4801 0.7185 -0.5032
vn 0.6110 0.6110 -0.5033
vn 0.7185 0.4801 -0.5033
vn 0.7983 0.3307 -0.5033
vn 0.8475 0.1686 -0.5033
vn -0.0000 -0.0000 1.0000
vt 0.250000 0.490000
vt 0.250000 0.250000
vt 0.296822 0.485388
vt 0.341844 0.471731
vt 0.383337 0.449553
vt 0.419706 0.419706
vt 0.449553 0.383337
vt 0.471731 0.341844
vt 0.485388 0.296822
vt 0.490000 0.250000
vt 0.485388 0.203178
vt 0.471731 0.158156
vt 0.449553 0.116663
vt 0.419706 0.080294
vt 0.383337 0.050447
vt 0.341844 0.028269
vt 0.296822 0.014612
vt 0.250000 0.010000
vt 0.203178 0.014612
vt 0.158156 0.028269
vt 0.116663 0.050447
vt 0.080294 0.080294
vt 0.050447 0.116663
vt 0.028269 0.158156
vt 0.014612 0.203178
vt 0.010000 0.250000
vt 0.014612 0.296822
vt 0.028269 0.341844
vt 0.050447 0.383337
vt 0.080294 0.419706
vt 0.116663 0.449553
vt 0.158156 0.471731
vt 0.796822 0.014612
vt 0.514612 0.203178
vt 0.703178 0.485388
vt 0.203178 0.485388
vt 0.750000 0.490000
vt 0.796822 0.485388
vt 0.841844 0.471731
vt 0.883337 0.449553
vt 0.919706 0.419706
vt 0.949553 0.383337
vt 0.971731 0.341844
vt 0.985388 0.296822
vt 0.990000 0.250000
vt 0.985388 0.203178
vt 0.971731 0.158156
vt 0.949553 0.116663
vt 0.919706 0.080294
vt 0.883337 0.050447
vt 0.841844 0.028269
vt 0.750000 0.010000
vt 0.703178 0.014612
vt 0.658156 0.028269
vt 0.616663 0.050447
vt 0.580294 0.080294
vt 0.550447 0.116663
vt 0.528269 0.158156
vt 0.510000 0.250000
vt 0.514612 0.296822
vt 0.528269 0.341844
vt 0.550447 0.383337
vt 0.580294 0.419706
vt 0.616663 0.449553
vt 0.658156 0.471731
s 1
usemtl Material.005
f 1/1/1 33/2/33 2/3/2
f 2/3/2 33/2/33 3/4/3
f 3/4/3 33/2/33 4/5/4
f 4/5/4 33/2/33 5/6/5
f 5/6/5 33/2/33 6/7/6
f 6/7/6 33/2/33 7/8/7
f 7/8/7 33/2/33 8/9/8
f 8/9/8 33/2/33 9/10/9
f 9/10/9 33/2/33 10/11/10
f 10/11/10 33/2/33 11/12/11
f 11/12/11 33/2/33 12/13/12
f 12/13/12 33/2/33 13/14/13
f 13/14/13 33/2/33 14/15/14
f 14/15/14 33/2/33 15/16/15
f 15/16/15 33/2/33 16/17/16
f 16/17/16 33/2/33 17/18/17
f 17/18/17 33/2/33 18/19/18
f 18/19/18 33/2/33 19/20/19
f 19/20/19 33/2/33 20/21/20
f 20/21/20 33/2/33 21/22/21
f 21/22/21 33/2/33 22/23/22
f 22/23/22 33/2/33 23/24/23
f 23/24/23 33/2/33 24/25/24
f 24/25/24 33/2/33 25/26/25
f 25/26/25 33/2/33 26/27/26
f 26/27/26 33/2/33 27/28/27
f 27/28/27 33/2/33 28/29/28
f 28/29/28 33/2/33 29/30/29
f 29/30/29 33/2/33 30/31/30
f 30/31/30 33/2/33 31/32/31
f 16/33/16 24/34/24 32/35/32
f 31/32/31 33/2/33 32/36/32
f 32/36/32 33/2/33 1/1/1
f 32/35/32 1/37/1 2/38/2
f 2/38/2 3/39/3 4/40/4
f 4/40/4 5/41/5 6/42/6
f 6/42/6 7/43/7 8/44/8
f 8/44/8 9/45/9 10/46/10
f 10/46/10 11/47/11 12/48/12
f 12/48/12 13/49/13 14/50/14
f 14/50/14 15/51/15 16/33/16
f 16/33/16 17/52/17 18/53/18
f 18/53/18 19/54/19 20/55/20
f 20/55/20 21/56/21 22/57/22
f 22/57/22 23/58/23 24/34/24
f 24/34/24 25/59/25 26/60/26
f 26/60/26 27/61/27 28/62/28
f 28/62/28 29/63/29 30/64/30
f 30/64/30 31/65/31 32/35/32
f 32/35/32 2/38/2 8/44/8
f 2/38/2 4/40/4 8/44/8
f 4/40/4 6/42/6 8/44/8
f 8/44/8 10/46/10 16/33/16
f 10/46/10 12/48/12 16/33/16
f 12/48/12 14/50/14 16/33/16
f 16/33/16 18/53/18 24/34/24
f 18/53/18 20/55/20 24/34/24
f 20/55/20 22/57/22 24/34/24
f 24/34/24 26/60/26 32/35/32
f 26/60/26 28/62/28 32/35/32
f 28/62/28 30/64/30 32/35/32
f 32/35/32 8/44/8 16/33/16
